# xmcd CD database file
#
# Track frame offsets:
#	150
#	15413
#	38539
#	47876
#	62640
#	75939
#	88205
#	104042
#	115589
#	127872
#	145502
#	160082
#	178154
#	194011
#	208626
#	241815
#
# Disc length: 3476 seconds
#
# Revision: 0
# Processed by: cddbd v1.4PL0 Copyright (c) Steve Scherf et al.
# Submitted via: CDex 1.40Release
#
DISCID=cb0d9210
DTITLE=Los Incas - en concert
DYEAR=1999
DGENRE=Native American
TTITLE0=Huayno y Tundiqui
TTITLE1=Abra la puerta
TTITLE2=Urubamba
TTITLE3=El duende
TTITLE4=Soldadito de plomo
TTITLE5=Caballo de madera
TTITLE6=Cronopios
TTITLE7=Buena nueva
TTITLE8=El condor pasa
TTITLE9=Sikuris
TTITLE10=Achachau
TTITLE11=Milongo D.
TTITLE12=Mas vale trocar
TTITLE13=Tusuy
TTITLE14=Bolero
TTITLE15=Sinergia
EXTD=YEAR: 1999 ID3G: 64
EXTT0=
EXTT1=
EXTT2=
EXTT3=
EXTT4=
EXTT5=
EXTT6=
EXTT7=
EXTT8=
EXTT9=
EXTT10=
EXTT11=
EXTT12=
EXTT13=
EXTT14=
EXTT15=
PLAYORDER=
